<?xml version="1.0" standalone="no"?>
<!DOCTYPE svg PUBLIC "-//W3C//DTD SVG 20010904//EN"
 "http://www.w3.org/TR/2001/REC-SVG-20010904/DTD/svg10.dtd">
<svg version="1.0" xmlns="http://www.w3.org/2000/svg"
 width="256.000000pt" height="299.000000pt" viewBox="0 0 256.000000 299.000000"
 preserveAspectRatio="xMidYMid meet">

<g transform="translate(0.000000,299.000000) scale(0.100000,-0.100000)"
fill="#000000" stroke="none">
<path d="M0 1495 l0 -1495 1280 0 1280 0 0 1495 0 1495 -1280 0 -1280 0 0
-1495z m2540 0 l0 -1475 -1260 0 -1260 0 0 1475 0 1475 1260 0 1260 0 0 -1475z"/>
<path d="M695 2485 c-56 -20 -120 -92 -135 -154 -20 -86 18 -181 93 -225 36
-22 38 -26 22 -32 -145 -48 -242 -161 -261 -301 l-7 -53 363 0 362 0 -7 47
c-22 150 -111 255 -259 307 -17 6 -14 10 20 32 63 41 88 85 92 164 5 80 -17
131 -75 179 -61 51 -132 63 -208 36z m182 -38 c69 -48 103 -133 83 -209 -25
-91 -97 -148 -190 -148 -165 0 -254 182 -154 316 57 77 181 96 261 41z m26
-406 c98 -42 184 -153 202 -258 l7 -43 -342 0 -343 0 7 42 c20 125 123 240
246 275 60 17 163 10 223 -16z"/>
<path d="M1330 2380 c0 -7 143 -10 410 -10 267 0 410 3 410 10 0 7 -143 10
-410 10 -267 0 -410 -3 -410 -10z"/>
<path d="M1330 2110 c0 -6 97 -10 271 -10 177 0 268 3 264 10 -4 6 -105 10
-271 10 -169 0 -264 -4 -264 -10z"/>
<path d="M1330 1840 c0 -6 97 -10 271 -10 177 0 268 3 264 10 -4 6 -105 10
-271 10 -169 0 -264 -4 -264 -10z"/>
<path d="M415 1500 c-4 -7 285 -10 860 -10 575 0 864 3 860 10 -4 7 -302 10
-860 10 -558 0 -856 -3 -860 -10z"/>
<path d="M415 1160 c9 -14 1711 -14 1720 0 4 7 -285 10 -860 10 -575 0 -864
-3 -860 -10z"/>
<path d="M415 830 c9 -14 1725 -14 1725 0 0 7 -295 10 -866 10 -574 0 -863 -3
-859 -10z"/>
<path d="M410 500 c0 -7 172 -10 495 -10 323 0 495 3 495 10 0 7 -172 10 -495
10 -323 0 -495 -3 -495 -10z"/>
</g>
</svg>
