<svg id="visual" viewBox="0 0 2400 700" width="2400" height="700" xmlns="http://www.w3.org/2000/svg" xmlns:xlink="http://www.w3.org/1999/xlink" version="1.1"><path d="M0 483L57.2 477.3C114.3 471.7 228.7 460.3 343 458.5C457.3 456.7 571.7 464.3 686 464C800.3 463.7 914.7 455.3 1028.8 460.2C1143 465 1257 483 1371.2 481C1485.3 479 1599.7 457 1714 443.5C1828.3 430 1942.7 425 2057 430.3C2171.3 435.7 2285.7 451.3 2342.8 459.2L2400 467L2400 701L2342.8 701C2285.7 701 2171.3 701 2057 701C1942.7 701 1828.3 701 1714 701C1599.7 701 1485.3 701 1371.2 701C1257 701 1143 701 1028.8 701C914.7 701 800.3 701 686 701C571.7 701 457.3 701 343 701C228.7 701 114.3 701 57.2 701L0 701Z" fill="#fa7268"></path><path d="M0 485L57.2 493.7C114.3 502.3 228.7 519.7 343 524.8C457.3 530 571.7 523 686 525C800.3 527 914.7 538 1028.8 542.2C1143 546.3 1257 543.7 1371.2 542.8C1485.3 542 1599.7 543 1714 542.7C1828.3 542.3 1942.7 540.7 2057 529.5C2171.3 518.3 2285.7 497.7 2342.8 487.3L2400 477L2400 701L2342.8 701C2285.7 701 2171.3 701 2057 701C1942.7 701 1828.3 701 1714 701C1599.7 701 1485.3 701 1371.2 701C1257 701 1143 701 1028.8 701C914.7 701 800.3 701 686 701C571.7 701 457.3 701 343 701C228.7 701 114.3 701 57.2 701L0 701Z" fill="#ef5f67"></path><path d="M0 585L57.2 580.3C114.3 575.7 228.7 566.3 343 557.2C457.3 548 571.7 539 686 535.3C800.3 531.7 914.7 533.3 1028.8 532.5C1143 531.7 1257 528.3 1371.2 534.8C1485.3 541.3 1599.7 557.7 1714 562.8C1828.3 568 1942.7 562 2057 557.7C2171.3 553.3 2285.7 550.7 2342.8 549.3L2400 548L2400 701L2342.8 701C2285.7 701 2171.3 701 2057 701C1942.7 701 1828.3 701 1714 701C1599.7 701 1485.3 701 1371.2 701C1257 701 1143 701 1028.8 701C914.7 701 800.3 701 686 701C571.7 701 457.3 701 343 701C228.7 701 114.3 701 57.2 701L0 701Z" fill="#e34c67"></path><path d="M0 625L57.2 619.7C114.3 614.3 228.7 603.7 343 593.5C457.3 583.3 571.7 573.7 686 568.3C800.3 563 914.7 562 1028.8 571.8C1143 581.7 1257 602.3 1371.2 604.2C1485.3 606 1599.7 589 1714 579.3C1828.3 569.7 1942.7 567.3 2057 569C2171.3 570.7 2285.7 576.3 2342.8 579.2L2400 582L2400 701L2342.8 701C2285.7 701 2171.3 701 2057 701C1942.7 701 1828.3 701 1714 701C1599.7 701 1485.3 701 1371.2 701C1257 701 1143 701 1028.8 701C914.7 701 800.3 701 686 701C571.7 701 457.3 701 343 701C228.7 701 114.3 701 57.2 701L0 701Z" fill="#d53867"></path><path d="M0 632L57.2 631.2C114.3 630.3 228.7 628.7 343 629.2C457.3 629.7 571.7 632.3 686 638.7C800.3 645 914.7 655 1028.8 660.5C1143 666 1257 667 1371.2 664.5C1485.3 662 1599.7 656 1714 646.8C1828.3 637.7 1942.7 625.3 2057 621.5C2171.3 617.7 2285.7 622.3 2342.8 624.7L2400 627L2400 701L2342.8 701C2285.7 701 2171.3 701 2057 701C1942.7 701 1828.3 701 1714 701C1599.7 701 1485.3 701 1371.2 701C1257 701 1143 701 1028.8 701C914.7 701 800.3 701 686 701C571.7 701 457.3 701 343 701C228.7 701 114.3 701 57.2 701L0 701Z" fill="#c62368"></path></svg>